<svg width="706" height="656" viewBox="0 0 706 656" fill="none" xmlns="http://www.w3.org/2000/svg">
<path fill-rule="evenodd" clip-rule="evenodd" d="M334.481 342.98C317.046 344.992 303.666 344.751 294.344 342.257C285.02 339.764 277.668 334.46 272.286 326.346C266.419 313.938 263.165 306.826 262.523 305.012C259.377 296.123 259.028 287.386 259.63 281.508C260.416 273.831 264.635 263.826 272.286 251.495C273.376 242.922 275.184 235.328 277.71 228.714C280.236 222.1 285.299 212.578 292.897 200.148L293.982 159.287C297.188 149.934 300.201 143.304 303.022 139.398C305.843 135.493 309.097 133.443 312.785 133.251C315.897 132.956 318.79 133.679 321.463 135.421C324.137 137.163 329.2 141.623 336.651 148.8C342.804 138.062 349.795 129.865 357.624 124.211C365.452 118.557 375.818 114.218 388.721 111.194L390.529 107.578L390.747 86.308L384.744 34.5341H376.788L389.083 16.4539C390.18 12.4696 391.265 9.57749 392.337 7.77533C393.409 5.9739 395.413 3.92423 398.347 1.62847C398.4 0.962614 400.813 0.600735 405.584 0.542835C410.356 0.484934 417.874 0.725945 428.137 1.26659C432.515 2.27261 435.533 3.59854 437.176 5.24436C438.819 6.88946 440.267 10.3852 441.512 15.7309L459.142 34.5594L448.025 35.2571L446.94 69.6095C445.391 75.5009 443.943 79.4779 442.597 81.5421C441.251 83.6062 439.087 85.1732 436.091 86.2429L418.373 87.3278L416.202 108.301L417.649 111.194C426.696 113.78 432.848 115.829 436.091 117.341C443.885 120.97 450.935 126.226 456.341 135.421C460.127 141.858 464.042 150.75 469.354 160.01C474.037 168.163 482.592 182.506 495.033 203.041L507.323 213.888L513.475 226.183L528.297 237.392L535.166 214.973C521.19 193.759 514.198 180.26 514.198 174.474C514.198 172.056 515.66 169.776 517.086 168.326C519.084 166.308 521.82 165.067 526.488 165.433C529.6 165.678 532.618 167.606 535.528 171.219L577.115 282.954C572.975 296.518 569.363 306.643 566.266 313.329C563.175 320.015 558.594 326.644 552.529 333.217C543.786 338.121 536.432 341.014 530.469 341.896C524.505 342.777 514.741 341.934 501.178 339.365C496.43 337.19 493.296 335.141 491.776 333.217C486.153 326.084 483.793 317.036 480.927 312.244C476.903 305.514 474.493 299.246 473.697 293.441L454.894 232.33L373.534 229.799L365.94 291.633C361.79 308.438 357.33 320.733 352.561 328.516C347.792 336.3 341.766 341.121 334.481 342.98Z" fill="white"/>
<path fill-rule="evenodd" clip-rule="evenodd" d="M340.084 356.301C338.611 356.036 337.526 355.904 336.827 355.907C334.146 355.918 331.957 355.78 330.675 353.736C328.893 350.893 329.375 347.515 332.123 343.604L339.722 341.07H343.341L369.758 342.156L378.082 341.07L407.394 339.985C410.53 341.432 411.613 344.207 410.651 348.308C409.686 352.409 407.032 354.942 402.689 355.907L394.004 356.301L335.38 625.109H297.745C304.187 582.885 309.374 551.122 313.305 529.833C317.237 508.543 326.163 450.699 340.084 356.301ZM432.001 356.301C431.944 355.447 429.649 355.315 425.126 355.907C421.268 353.977 419.698 350.961 420.421 346.861C421.145 342.759 422.954 340.588 425.849 340.347L431.278 341.07H447.924L464.57 342.156L483.026 340.347C488.816 340.829 491.711 343.483 491.711 348.308C491.711 351.05 490.785 352.474 489.54 353.736C488.91 354.375 487.702 355.098 485.921 355.907L480.131 356.301L494.968 625.471H455.885C450.624 577.066 447.244 543.135 445.753 523.674C443.98 500.495 433.941 385.282 432.001 356.301Z" fill="white"/>
<path fill-rule="evenodd" clip-rule="evenodd" d="M340.084 355.939H394.004L335.38 624.747H297.745C304.187 582.523 309.374 550.76 313.305 529.47C317.237 508.181 326.163 450.337 340.084 355.939ZM432.001 355.939H480.131L494.968 625.109H455.885C450.624 576.704 447.244 542.774 445.753 523.312C443.98 500.133 433.941 384.92 432.001 355.939Z" stroke="#505050" stroke-width="1.5"/>
<path fill-rule="evenodd" clip-rule="evenodd" d="M373.739 116.11L332.939 116.302C312.583 116.397 295.847 132.377 294.81 152.705L294.126 166.105C294.763 159.215 295.607 154.385 296.659 151.613C298.328 147.216 300.255 144.686 302.449 141.832C305.765 137.517 309.521 133.877 312.582 133.137C319.578 131.447 327.419 136.881 336.104 149.44C337.558 146.627 338.765 144.453 339.722 142.919C341.635 139.857 343.671 136.55 347.322 133.137C354.559 126.375 363.365 120.699 373.739 116.11Z" fill="#E16428"/>
<path fill-rule="evenodd" clip-rule="evenodd" d="M340.446 340.361C344.168 341.719 351.165 342.323 361.435 342.172C367.028 342.09 377.094 340.421 385.681 339.999C390.469 339.763 397.707 339.763 407.394 339.999L415.717 317.899H423.678L426.211 339.999C434.679 340.528 440.708 340.89 444.305 341.086C452.035 341.505 458.462 341.81 463.485 341.81C472.011 341.81 478.278 341.206 482.303 339.999L463.847 236.749L378.082 240.009C376.96 255.732 372.86 273 365.778 291.815C364.269 295.826 364.027 300.894 362.521 305.944C360.225 313.64 357.697 321.084 354.921 326.232C352.288 331.116 347.463 335.825 340.446 340.361Z" fill="#E16428"/>
<path d="M481.731 340.24L473.444 291.907C473.393 291.612 473.596 291.33 473.885 291.28C474.182 291.229 474.464 291.428 474.515 291.723L482.758 339.818H483.931C488.527 339.818 492.254 343.548 492.254 348.15C492.254 352.752 488.527 356.482 483.931 356.482H426.827C422.752 356.482 419.451 353.175 419.451 349.095C419.451 348.754 419.473 348.413 419.524 348.075L419.958 344.964C420.349 342.164 422.513 339.974 425.256 339.523L423.186 318.443H416.093L408.138 339.564C410.357 340.077 411.932 342.151 411.751 344.494C411.736 344.696 411.707 344.897 411.664 345.095L410.998 348.261C410 353.051 405.78 356.482 400.892 356.482H334.691C331.64 356.482 329.167 354.006 329.167 350.953C329.167 350.374 329.258 349.8 329.436 349.25C329.918 347.757 330.521 345.827 331.242 343.462C331.33 343.175 331.633 343.014 331.92 343.101C332.206 343.189 332.368 343.493 332.28 343.78C331.557 346.15 330.953 348.085 330.468 349.585C330.325 350.027 330.253 350.488 330.253 350.953C330.253 353.406 332.239 355.395 334.691 355.395H400.892C405.267 355.395 409.042 352.325 409.938 348.038L410.601 344.873C410.633 344.72 410.654 344.566 410.666 344.411C410.819 342.431 409.342 340.701 407.367 340.541C402.877 340.453 399.699 340.408 397.839 340.406C392.801 340.4 378.593 341.225 375.621 341.624C368.873 342.528 365.3 342.658 359.464 342.462C359.274 342.455 359.274 342.455 359.084 342.448C356.998 342.378 356.001 342.353 354.671 342.353C349.843 342.353 346.238 342.232 343.844 341.988C341.036 341.702 339.764 341.302 339.908 340.284L340.984 340.437C340.995 340.358 340.973 340.3 340.959 340.273C341.035 340.332 341.191 340.404 341.421 340.476C341.954 340.644 342.803 340.79 343.954 340.907C346.303 341.146 349.877 341.267 354.671 341.267C356.017 341.267 357.024 341.291 359.121 341.362C359.31 341.369 359.31 341.369 359.5 341.375C365.28 341.57 368.794 341.442 375.477 340.546C378.501 340.141 392.756 339.314 397.84 339.32C399.658 339.321 402.718 339.365 407.021 339.448L415.21 317.708C415.29 317.496 415.493 317.356 415.717 317.356H423.678H428.383C428.679 317.356 428.925 317.599 428.925 317.899C428.925 318.2 428.679 318.443 428.383 318.443H424.279L426.356 339.583C428.752 339.978 433.543 340.179 440.687 340.179C443.372 340.179 456.501 340.913 460.279 341.269C464.585 341.673 471.743 341.332 481.731 340.24ZM482.324 340.904L482.36 341.263C472.032 342.407 464.643 342.771 460.177 342.351C456.436 341.998 443.335 341.267 440.687 341.267C433.044 341.267 428.079 341.039 425.741 340.577L425.748 340.553C423.324 340.805 421.369 342.683 421.029 345.114L420.595 348.225C420.559 348.514 420.537 348.805 420.537 349.095C420.537 352.575 423.353 355.395 426.827 355.395H483.931C487.926 355.395 491.169 352.151 491.169 348.15C491.169 344.148 487.926 340.904 483.931 340.904H482.324Z" fill="#505050"/>
<path d="M419.126 87.309L417.02 109.575C434.173 115.412 445.145 120.48 449.965 124.824C456.226 130.458 472.264 163.018 480.479 184.386C482.961 190.839 486.812 194.927 496.148 202.492L496.93 203.128C506.31 210.726 510.138 214.828 512.49 221.349C516.109 231.415 523.361 233.834 534.543 228.648C534.818 228.522 535.144 228.641 535.267 228.913C535.39 229.185 535.274 229.508 534.999 229.634C523.267 235.075 515.32 232.421 511.463 221.717C509.212 215.446 505.477 211.448 496.249 203.973L495.461 203.337C485.979 195.655 482.042 191.466 479.465 184.776C471.323 163.595 455.314 131.101 449.241 125.633C444.522 121.385 433.514 116.314 416.267 110.466C416.028 110.385 415.876 110.151 415.898 109.9L418.04 87.309H411.736C411.44 87.309 411.193 87.0658 411.193 86.7654C411.193 86.4658 411.44 86.2219 411.736 86.2219H418.626C418.634 86.2219 418.634 86.2219 418.641 86.2219H430.691C438.161 86.2219 442.496 83.1821 444.761 77.0374C446.578 72.0999 447.019 66.3931 447.019 54.1935V45.8847C447.019 45.7697 447.019 45.6763 447.019 45.4649C447.027 41.4257 446.839 39.0981 445.97 35.5495C445.956 35.5285 445.927 35.5024 445.898 35.472C445.811 35.3873 445.695 35.2766 445.543 35.1406H393.792C393.493 35.1406 393.249 34.8974 393.249 34.5977C393.249 34.2974 393.493 34.0542 393.792 34.0542H445.753C445.883 34.0542 446.013 34.1027 446.115 34.1903C446.752 34.7584 446.947 34.9495 447.005 35.1919C447.917 38.8983 448.112 41.3099 448.105 45.4664C448.105 45.6777 448.105 45.7704 448.105 45.8847V54.1935C448.105 66.5306 447.656 72.3091 445.775 77.4137C443.357 83.984 438.617 87.309 430.691 87.309H419.126ZM577.679 282.243L578.721 282.55C569.631 313.464 559.969 331.486 549.634 336.644C533.356 344.765 513.46 345.39 497.263 337.436C495.12 336.386 493.441 334.917 491.733 332.661C490.517 331.053 489.323 329.118 487.405 325.758C486.906 324.879 484.995 321.495 484.713 320.999C483.511 318.883 482.476 317.082 481.376 315.205C479.863 312.634 477.714 306.958 474.913 298.139L475.941 297.809C478.72 306.55 480.855 312.177 482.31 314.653C483.417 316.536 484.459 318.342 485.661 320.463C485.943 320.961 487.847 324.343 488.346 325.219C490.242 328.54 491.422 330.445 492.602 332.005C494.208 334.133 495.764 335.49 497.74 336.461C513.627 344.259 533.168 343.646 549.149 335.671C559.122 330.695 568.669 312.876 577.679 282.243Z" fill="#505050"/>
<path fill-rule="evenodd" clip-rule="evenodd" d="M428.745 114.661L435.258 117.197C439.84 131.206 443.343 143.161 445.753 153.063C448.163 162.965 449.733 177.698 450.457 197.261L441.41 194.725C442.134 179.026 440.81 165.139 437.43 153.063C435.96 147.803 433.065 135.002 428.745 114.661ZM373.377 116.11L379.529 113.574C380.977 124.281 381.7 132.735 381.7 138.934C381.7 145.133 381.7 151.412 381.7 157.773L372.292 171.176C373.739 166.83 374.463 157.048 374.463 141.832C374.463 126.616 374.101 118.043 373.377 116.11Z" fill="#E16428"/>
<path d="M428.578 114.774L428.368 113.791L436.054 116.784L436.134 117.028C440.723 131.049 444.226 143.017 446.643 152.934C449.068 162.879 450.638 177.644 451.362 197.241L451.391 197.985L441.208 195.131L441.229 194.7C441.953 179.056 440.629 165.226 437.27 153.209C435.794 147.934 432.899 135.128 428.578 114.774ZM438.313 152.916C441.678 164.941 443.017 178.741 442.337 194.318L450.247 196.537C449.516 177.378 447.96 162.926 445.586 153.192C443.191 143.362 439.724 131.501 435.186 117.611L429.845 115.533C434.05 135.29 436.872 147.757 438.313 152.916ZM373.231 116.301L373.046 115.808L380.335 112.804L380.429 113.502C381.88 124.231 382.605 132.707 382.605 138.934V157.944L370.966 174.526L372.139 171.005C373.561 166.733 374.282 156.987 374.282 141.832C374.282 126.736 373.919 118.138 373.231 116.301ZM375.367 141.832C375.367 154.395 374.877 163.265 373.883 168.48L381.519 157.601V138.934C381.519 132.898 380.829 124.7 379.447 114.346L374.398 116.426C375.054 119.147 375.367 127.545 375.367 141.832Z" fill="#505050"/>
<path d="M418.453 116.264L419.495 115.956L468.725 282.294C471.533 296.996 481.673 304.314 499.311 304.314C516.956 304.314 531.46 292.524 542.845 268.84L543.822 269.311C532.278 293.337 517.434 305.401 499.311 305.401C481.181 305.401 470.57 297.745 467.668 282.55L418.453 116.264ZM445.217 250.795L446.288 250.961C440.701 287.188 430.207 305.401 414.631 305.401C402.033 305.401 393.65 266.162 390.205 191.127C389.555 176.979 389.193 152.821 389.119 118.648L390.204 118.645C390.279 152.803 390.641 176.948 391.289 191.077C394.69 265.135 403.06 304.314 414.631 304.314C429.454 304.314 439.702 286.54 445.217 250.795Z" fill="#505050"/>
<path fill-rule="evenodd" clip-rule="evenodd" d="M499.296 232.974L537.214 228.989L539.458 250.328L501.54 254.314L499.296 232.974ZM464.129 194.721L460.561 160.816C461.994 157.15 465.757 154.996 471.866 154.354C477.967 153.713 482.1 155.037 484.264 158.325L487.825 192.23L464.129 194.721ZM563.66 184.259L539.964 186.75L536.396 152.845C537.829 149.179 541.593 147.025 547.701 146.384C553.802 145.742 557.935 147.066 560.099 150.355L563.66 184.259Z" fill="#505050"/>
<path fill-rule="evenodd" clip-rule="evenodd" d="M461.147 232.369L455.639 179.97C457.948 174.294 463.984 170.943 473.755 169.916C483.518 168.889 490.119 170.912 493.557 175.985L499.065 228.383L461.147 232.369ZM574.9 220.412L536.982 224.398L531.475 171.999C533.783 166.324 539.819 162.972 549.59 161.946C559.354 160.919 565.954 162.942 569.392 168.014L574.9 220.412Z" fill="white"/>
<path fill-rule="evenodd" clip-rule="evenodd" d="M460.908 232.515L455.401 180.116C457.709 174.441 463.745 171.089 473.516 170.063C483.28 169.036 489.88 171.059 493.318 176.131L498.826 228.53L460.908 232.515ZM574.661 220.559L536.744 224.544L531.236 172.146C533.545 166.47 539.581 163.118 549.351 162.092C559.115 161.066 565.716 163.088 569.153 168.161L574.661 220.559Z" fill="white" stroke="#505050" stroke-width="1.5" stroke-linecap="round" stroke-linejoin="round"/>
<path fill-rule="evenodd" clip-rule="evenodd" d="M459.982 290.444L453.606 229.826C456.906 223.194 465.265 219.172 478.698 217.76C492.124 216.349 501.142 218.544 505.745 224.346L512.114 284.964L459.982 290.444ZM587.949 276.993L535.817 282.473L529.441 221.855C532.741 215.223 541.101 211.201 554.534 209.79C567.959 208.378 576.977 210.573 581.58 216.376L587.949 276.993Z" fill="white"/>
<path d="M459.866 291.002C459.569 291.034 459.302 290.817 459.273 290.518L452.903 229.901C452.889 229.798 452.911 229.694 452.954 229.602C456.349 222.767 464.874 218.667 478.474 217.238C492.066 215.809 501.258 218.047 506.006 224.026C506.071 224.107 506.107 224.205 506.121 224.307L512.49 284.925C512.519 285.224 512.302 285.491 512.006 285.522L459.866 291.002ZM511.354 284.498L505.057 224.58C500.563 219.046 491.755 216.935 478.582 218.318C465.417 219.703 457.239 223.599 453.996 229.946L460.293 289.865L511.354 284.498ZM588.326 276.954C588.355 277.253 588.137 277.52 587.841 277.551L535.701 283.032C535.405 283.063 535.137 282.846 535.108 282.547L528.739 221.93C528.724 221.827 528.746 221.724 528.789 221.631C532.191 214.797 540.717 210.696 554.309 209.267C567.901 207.838 577.093 210.076 581.841 216.055C581.906 216.136 581.942 216.234 581.957 216.337L588.326 276.954ZM587.189 276.527L580.893 216.609C576.398 211.075 567.59 208.964 554.425 210.348C541.253 211.732 533.081 215.628 529.832 221.975L536.128 281.894L587.189 276.527Z" fill="#505050"/>
<path fill-rule="evenodd" clip-rule="evenodd" d="M486.812 296.613C472.416 298.126 460.329 295.372 459.808 290.462C459.294 285.551 470.549 280.344 484.944 278.83C499.34 277.318 511.434 280.071 511.948 284.981C512.469 289.892 501.214 295.1 486.812 296.613ZM562.654 288.642C548.251 290.156 536.164 287.401 535.651 282.491C535.13 277.58 546.384 272.373 560.78 270.86C575.182 269.347 587.269 272.101 587.783 277.011C588.304 281.921 577.05 287.129 562.654 288.642Z" fill="#505050"/>
<path d="M446.998 242.614C451.55 242.135 454.85 238.056 454.373 233.501C453.895 228.947 449.813 225.644 445.261 226.122C440.708 226.6 437.408 230.679 437.886 235.234C438.363 239.788 442.445 243.093 446.998 242.614ZM446.882 241.533C442.923 241.949 439.384 239.078 438.964 235.12C438.551 231.164 441.418 227.618 445.376 227.203C449.328 226.787 452.875 229.657 453.294 233.615C453.707 237.572 450.841 241.117 446.882 241.533Z" fill="#505050"/>
<path d="M273.237 251.581L280.551 248.918C280.833 248.816 281.144 248.962 281.247 249.243C281.349 249.525 281.203 249.837 280.922 249.94L274.419 252.307L281.012 256.207C281.27 256.359 281.356 256.693 281.204 256.951C281.051 257.21 280.718 257.295 280.46 257.142L273.098 252.787L272.96 252.838C272.896 252.861 272.831 252.872 272.766 252.871C259.476 270.589 256.401 288.069 263.506 305.376C270.432 322.248 273.545 328.269 278.792 333.467C284.841 339.459 293.172 342.572 307.575 344.168C334.736 347.178 350.6 338.166 357.666 318.082C362.081 305.533 364.606 296.745 365.239 291.747C365.277 291.45 365.548 291.239 365.846 291.277C366.143 291.314 366.354 291.586 366.316 291.884C365.67 296.981 363.129 305.824 358.69 318.442C351.45 339.024 335.101 348.311 307.455 345.249C292.831 343.628 284.28 340.431 278.029 334.239C272.637 328.899 269.488 322.805 262.502 305.789C255.204 288.011 258.423 270.034 272.12 251.924C273.594 233.535 280.261 216.325 292.116 200.301C303.934 184.327 316.113 172.317 328.657 164.276C337.136 141.788 349.446 126.727 365.594 119.128C373.639 115.342 379.677 112.824 383.719 111.574C386.426 110.738 388.352 110.429 389.43 110.77L391.291 76.5923C391.307 76.2927 391.563 76.0633 391.863 76.0777C392.162 76.0958 392.391 76.352 392.375 76.6517L390.439 112.206C390.401 112.909 389.354 112.881 389.354 112.176C389.354 111.511 387.679 111.488 384.04 112.613C380.057 113.845 374.059 116.345 366.056 120.111C350.147 127.598 337.997 142.492 329.609 164.828C329.568 164.938 329.492 165.032 329.394 165.095C316.917 173.059 304.78 185.009 292.988 200.948C281.345 216.686 274.764 233.561 273.237 251.581Z" fill="#505050"/>
<path fill-rule="evenodd" clip-rule="evenodd" d="M390.024 107.778L384.939 120.652C384.646 121.396 385.01 122.237 385.754 122.531C386.047 122.646 386.369 122.663 386.673 122.579L408.387 116.555L422.759 121.673C423.512 121.941 424.337 121.548 424.605 120.795C424.771 120.345 424.699 119.844 424.416 119.458L416.441 108.503C414.964 109.79 411.794 110.434 406.936 110.434C402.078 110.434 396.44 109.549 390.024 107.778Z" fill="white"/>
<path d="M408.049 116.95L387.18 122.74C386.763 122.856 386.319 122.832 385.917 122.673C384.894 122.269 384.393 121.111 384.797 120.087L389.881 107.216C389.982 106.958 390.262 106.818 390.529 106.892C396.903 108.651 402.493 109.529 407.297 109.529C412.033 109.529 415.094 108.906 416.448 107.73C416.687 107.521 417.056 107.563 417.244 107.82L425.213 118.771C425.596 119.303 425.697 119.993 425.48 120.613C425.111 121.65 423.975 122.191 422.933 121.822L409.137 116.907C409.162 117.113 409.19 117.355 409.222 117.633C409.358 118.812 409.561 120.639 409.833 123.115C410.376 128.067 411.193 135.615 412.279 145.76C412.308 146.058 412.091 146.326 411.794 146.357C411.497 146.389 411.23 146.174 411.193 145.875C410.111 135.732 409.296 128.185 408.754 123.234C408.483 120.76 408.279 118.934 408.144 117.757C408.107 117.441 408.075 117.172 408.049 116.95ZM408.036 110.611C408.155 111.076 408.269 111.595 408.377 112.162C408.555 113.085 408.694 113.973 408.858 115.145L408.927 115.641C408.93 115.655 408.931 115.668 408.933 115.681L423.302 120.798C423.772 120.966 424.286 120.72 424.453 120.249C424.554 119.967 424.511 119.654 424.337 119.412L416.687 108.907C415.051 110 412.178 110.553 408.036 110.611ZM407.864 115.873C407.861 115.848 407.857 115.821 407.853 115.793L407.783 115.296C407.622 114.141 407.485 113.268 407.311 112.367C407.185 111.708 407.052 111.121 406.914 110.614C402.212 110.57 396.812 109.721 390.711 108.068L385.807 120.487C385.623 120.952 385.851 121.478 386.316 121.662C386.499 121.734 386.701 121.745 386.89 121.692L407.864 115.873Z" fill="#505050"/>
<path fill-rule="evenodd" clip-rule="evenodd" d="M333.932 232.147C363.962 184.228 381.212 157.781 385.681 152.808C389.169 148.926 395.143 148.607 399.025 152.095C401.929 154.705 402.93 158.834 401.541 162.483L390.747 190.847" fill="white"/>
<path d="M334.266 232.691C364.262 184.827 381.522 158.363 385.958 153.426C389.248 149.766 394.878 149.467 398.534 152.76C401.271 155.224 402.211 159.119 400.901 162.562L390.114 190.909L391.129 191.295L401.915 162.949C403.385 159.086 402.33 154.717 399.261 151.953C395.159 148.258 388.842 148.592 385.151 152.7C380.649 157.71 363.411 184.139 333.346 232.113L334.266 232.691Z" fill="#505050"/>
<path fill-rule="evenodd" clip-rule="evenodd" d="M401.012 55.9927C400.167 55.7438 399.272 55.6099 398.347 55.6099C393.15 55.6099 388.938 59.8272 388.938 65.0288C388.938 69.4488 391.979 73.1581 396.081 74.1735L395.655 82.9375C395.541 85.2752 393.597 87.102 391.257 87.0694L380.089 86.9123C379.373 86.9022 378.661 86.7958 377.974 86.5953C373.753 85.3657 371.327 80.9464 372.557 76.7247L384.831 34.5978H386.284L386.29 34.5898L387.992 34.5978H394.366L394.368 34.6281L409.506 34.7013C407.759 42.7407 406.189 48.1132 404.797 50.8179C403.804 52.7496 402.542 54.475 401.012 55.9927ZM452.448 34.5978C453.866 40.6353 451.666 43.6548 445.832 43.6548C439.992 43.6548 431.242 40.6353 419.575 34.5978H452.448Z" fill="#505050"/>
<path fill-rule="evenodd" clip-rule="evenodd" d="M318.507 244.793L367.644 201.01C374.797 194.636 384.076 191.17 393.657 191.294L449.61 192.014C457.253 192.113 463.499 198.14 463.868 205.774C464.223 213 458.65 219.143 451.42 219.494C451.261 219.502 451.094 219.507 450.928 219.509L403.559 220.027C400.661 220.058 398.337 222.434 398.368 225.332C398.368 225.334 398.368 225.335 398.368 225.337C398.404 228.271 400.75 230.654 403.683 230.734L452.578 232.074C459.244 232.257 464.556 237.692 464.592 244.357C464.628 250.925 459.33 256.277 452.766 256.312C452.744 256.312 452.723 256.312 452.701 256.312H406.092C403.226 256.312 400.902 258.636 400.902 261.503C400.902 261.524 400.902 261.545 400.902 261.565C400.939 264.718 402.95 267.507 405.927 268.541L435.772 278.902C440.94 280.695 443.668 286.335 441.873 291.5C441.794 291.729 441.707 291.955 441.613 292.178C439.225 297.71 433 300.494 427.283 298.587L378.764 282.396L352.516 299.915C339.054 308.899 320.858 305.27 311.874 291.808C311.028 290.542 310.284 289.213 309.645 287.83C307.359 282.882 306.646 275.793 307.506 266.562C308.287 258.175 312.218 250.397 318.507 244.793Z" fill="white"/>
<path d="M316.552 296.248L325.705 290.358C322.564 287.355 320.028 283.667 317.886 279.379C314.782 273.163 315.802 261.277 320.89 243.645L319.156 245.189C312.96 250.71 309.087 258.379 308.32 266.647C307.473 275.774 308.178 282.762 310.415 287.602C311.039 288.952 311.765 290.25 312.589 291.487C313.761 293.247 315.092 294.836 316.552 296.248ZM317.374 297.012C326.912 305.538 341.34 306.905 352.475 299.473L355.007 297.783C344.945 299.602 336.76 298.117 330.201 293.903C328.894 293.064 327.674 292.134 326.531 291.118L317.374 297.012ZM321.468 241.675C321.469 241.672 321.469 241.669 321.471 241.665C321.532 241.458 321.706 241.316 321.906 241.284L367.564 200.601C374.817 194.139 384.22 190.625 393.928 190.75L449.907 191.471C457.825 191.573 464.303 197.827 464.686 205.748C465.055 213.273 459.258 219.67 451.738 220.037C451.572 220.045 451.398 220.05 451.224 220.052L403.836 220.571C401.241 220.599 399.16 222.728 399.189 225.326V225.331C399.22 227.973 401.331 230.119 403.97 230.191L452.882 231.531C459.83 231.722 465.374 237.396 465.41 244.354C465.446 251.223 459.917 256.819 453.056 256.856H452.99H406.363C403.8 256.856 401.722 258.936 401.722 261.503C401.722 261.531 401.722 261.531 401.722 261.559C401.756 264.482 403.619 267.068 406.378 268.026L436.235 278.392C441.678 280.28 444.559 286.226 442.67 291.671C442.583 291.915 442.489 292.156 442.387 292.393C439.883 298.186 433.377 301.101 427.398 299.105L379.122 282.996L353.077 300.378C339.361 309.532 320.83 305.821 311.686 292.09C310.831 290.807 310.077 289.459 309.43 288.059C307.1 283.015 306.376 275.847 307.24 266.547C308.032 258.004 312.033 250.081 318.435 244.377L321.468 241.675ZM322.42 242.281C316.987 260.581 315.82 272.813 318.857 278.893C321.858 284.901 325.637 289.679 330.788 292.988C337.493 297.296 345.981 298.65 356.616 296.356C356.765 296.324 356.912 296.356 357.03 296.434L378.961 281.797L427.739 298.074C433.181 299.892 439.116 297.237 441.389 291.962C441.483 291.749 441.569 291.534 441.642 291.315C443.335 286.436 440.752 281.11 435.881 279.418L406.022 269.053C402.831 267.945 400.677 264.953 400.636 261.572C400.636 261.538 400.636 261.538 400.636 261.503C400.636 258.336 403.2 255.769 406.363 255.769H452.99L453.048 255.768C459.309 255.736 464.361 250.628 464.324 244.36C464.296 237.989 459.215 232.792 452.853 232.618L403.94 231.277C400.719 231.189 398.142 228.57 398.103 225.344V225.337C398.068 222.14 400.629 219.518 403.824 219.484L451.217 218.965C451.369 218.963 451.528 218.959 451.688 218.951C458.607 218.614 463.941 212.727 463.601 205.801C463.246 198.453 457.239 192.652 449.893 192.558L393.914 191.837C384.477 191.715 375.336 195.131 368.286 201.413L322.42 242.281Z" fill="#505050"/>
<path fill-rule="evenodd" clip-rule="evenodd" d="M563.421 204.663L563.428 206.136C563.465 213.649 569.559 219.722 577.078 219.722H587.37C578.866 220.376 573.315 223.154 570.724 228.054C566.649 235.772 569.602 245.334 577.325 249.411C579.597 250.612 582.13 251.24 584.7 251.24H589.18L587.957 251.841C579.351 256.067 575.79 266.472 580.017 275.083C580.27 275.602 580.553 276.108 580.857 276.6C584.975 282.33 592.958 283.64 598.683 279.526C599.066 279.251 599.435 278.955 599.783 278.64L607.773 271.442C612.188 267.467 614.258 261.514 613.274 255.658C613.208 255.232 613.136 254.846 613.064 254.5C612.651 252.388 611.204 249.249 608.721 245.081C610.415 241.7 610.892 237.594 610.169 232.764C609.445 227.933 607.397 223.707 604.017 220.084C605.667 215.867 605.906 211.157 604.74 205.955C604.285 203.895 603.648 202.139 602.83 200.688C601.339 198.026 598.646 196.255 595.607 195.937L575.407 193.816C569.443 193.189 564.102 197.516 563.479 203.479C563.436 203.872 563.421 204.268 563.421 204.663Z" fill="white"/>
<path d="M589.332 250.335L608.576 244.271C610.125 241.036 610.567 237.11 609.872 232.482C609.163 227.774 607.172 223.658 603.886 220.122V220.265L587.204 219.938C579.119 220.64 573.887 223.32 571.44 227.946C567.51 235.395 570.347 244.627 577.795 248.565C579.988 249.727 582.434 250.335 584.917 250.335H589.332ZM589.621 251.384L588.42 251.972C580.097 256.059 576.651 266.131 580.733 274.468C580.987 274.976 581.255 275.471 581.537 275.92C585.481 281.413 593.124 282.665 598.61 278.717C598.972 278.456 599.32 278.175 599.652 277.876L607.636 270.685C611.92 266.827 613.932 261.046 612.97 255.36C612.904 254.949 612.832 254.577 612.767 254.244C612.383 252.269 611.03 249.301 608.714 245.367L589.621 251.384ZM587.609 218.859L603.879 219.178C605.363 215.155 605.558 210.67 604.451 205.712C604.002 203.703 603.38 201.998 602.598 200.597C601.187 198.087 598.654 196.415 595.788 196.115L575.588 193.994C569.921 193.399 564.847 197.514 564.253 203.185C564.217 203.56 564.196 203.934 564.196 204.311L564.203 205.771C564.239 212.986 570.087 218.816 577.296 218.816H587.609V218.859ZM570.485 227.438C572.417 223.78 575.913 221.272 580.951 219.903H577.296C569.494 219.903 563.153 213.589 563.117 205.776L563.11 204.316C563.11 203.9 563.132 203.485 563.175 203.072C563.834 196.804 569.443 192.256 575.703 192.913L595.903 195.034C599.117 195.371 601.961 197.247 603.546 200.065C604.386 201.565 605.037 203.368 605.508 205.475C606.666 210.648 606.456 215.361 604.885 219.601C608.2 223.249 610.219 227.492 610.943 232.321C611.667 237.13 611.211 241.258 609.575 244.694C611.992 248.786 613.411 251.889 613.838 254.033C613.903 254.377 613.976 254.759 614.041 255.179C615.061 261.232 612.919 267.386 608.359 271.493L600.383 278.683C600.022 279.01 599.638 279.316 599.247 279.6C593.269 283.899 584.946 282.535 580.632 276.524C580.314 276.013 580.024 275.487 579.764 274.947C575.551 266.347 578.859 256.015 587.131 251.422H584.917C582.253 251.422 579.633 250.771 577.281 249.526C569.313 245.307 566.266 235.418 570.485 227.438ZM577.281 196.887C577.578 196.883 577.824 197.122 577.831 197.423C577.831 197.723 577.592 197.969 577.296 197.974C573.293 198.031 571.52 200.424 571.86 205.437C572.208 210.473 573.988 212.732 577.252 212.504C577.556 212.483 577.809 212.709 577.831 213.008C577.853 213.308 577.629 213.568 577.332 213.589C573.358 213.866 571.158 211.078 570.782 205.512C570.398 199.922 572.598 196.953 577.281 196.887ZM582.47 227.876C582.767 227.85 583.028 228.072 583.057 228.371C583.078 228.67 582.861 228.934 582.557 228.958C578.569 229.294 576.97 231.806 577.657 236.783C578.352 241.782 580.292 243.912 583.534 243.457C583.831 243.415 584.106 243.622 584.142 243.919C584.186 244.217 583.976 244.491 583.679 244.533C579.742 245.087 577.354 242.459 576.586 236.932C575.812 231.384 577.802 228.269 582.47 227.876ZM590.077 259.565C590.374 259.504 590.656 259.693 590.721 259.987C590.779 260.28 590.591 260.568 590.301 260.629C586.386 261.449 585.098 264.137 586.393 268.992C587.689 273.869 589.867 275.748 593.03 274.9C593.32 274.823 593.616 274.995 593.696 275.285C593.776 275.575 593.602 275.873 593.312 275.95C589.469 276.98 586.777 274.663 585.344 269.272C583.896 263.859 585.496 260.524 590.077 259.565Z" fill="#505050"/>
<path fill-rule="evenodd" clip-rule="evenodd" d="M119.86 388.171L137.432 571.686H146.479L137.863 386.404C137.637 381.542 133.512 377.784 128.65 378.01C128.501 378.017 128.353 378.028 128.204 378.042C123.106 378.539 119.372 383.072 119.86 388.171Z" fill="white"/>
<path d="M119.32 388.766L136.939 572.771H147.048L138.405 386.921C138.166 381.76 133.787 377.77 128.625 378.01C128.467 378.018 128.309 378.029 128.152 378.044C122.755 378.57 118.803 383.368 119.32 388.766ZM137.926 571.685L120.401 388.663C119.941 383.86 123.456 379.593 128.257 379.125C128.396 379.111 128.536 379.101 128.676 379.094C133.238 378.882 137.109 382.409 137.321 386.972L145.91 571.685H137.926Z" fill="#505050"/>
<path d="M132.498 569.936C132.384 570.214 132.067 570.347 131.79 570.234C131.512 570.12 131.38 569.803 131.493 569.526C138.655 552.015 142.824 539.78 143.997 532.85C144.047 532.554 144.327 532.355 144.622 532.405C144.918 532.455 145.117 532.735 145.067 533.031C143.877 540.063 139.688 552.355 132.498 569.936ZM143.599 508.669C143.694 508.953 143.541 509.26 143.257 509.356C142.973 509.451 142.665 509.298 142.57 509.013C139.382 499.509 132.943 491.4 123.234 484.68C122.988 484.509 122.926 484.171 123.096 483.924C123.267 483.678 123.605 483.617 123.852 483.787C133.746 490.635 140.334 498.931 143.599 508.669ZM135.811 547.158C135.687 547.432 135.366 547.553 135.093 547.429C134.82 547.305 134.699 546.983 134.822 546.71C135.791 544.574 136.439 542.833 136.767 541.496C141.273 523.126 138.48 509.702 130.503 500.16C130.311 499.93 130.341 499.588 130.571 499.395C130.801 499.204 131.144 499.234 131.336 499.464C139.54 509.278 142.407 523.058 137.821 541.755C137.475 543.167 136.805 544.966 135.811 547.158ZM127.5 394C133.602 422.347 128.82 397.038 129.117 397C129.08 396.702 129.415 396.962 129.117 397C133.821 433.873 146.449 428.39 177.126 430.679C177.425 430.701 177.649 430.962 177.627 431.261C177.604 431.56 177.344 431.784 177.045 431.762C145.816 429.431 132.265 431.355 127.5 394ZM134.5 391.5C134.202 391.528 135.447 398.906 134.5 391.5C134.365 399.008 134.799 391.472 134.5 391.5C137.583 423.969 149.806 420.888 176.176 422.828C176.475 422.851 176.7 423.111 176.678 423.41C176.656 423.709 176.396 423.934 176.097 423.911C149.157 421.929 137.63 424.463 134.5 391.5Z" fill="#505050"/>
<path fill-rule="evenodd" clip-rule="evenodd" d="M420.421 59.2323C419.025 59.2323 417.888 57.9346 417.888 56.3343C417.888 54.7334 419.025 53.4357 420.421 53.4357C421.818 53.4357 422.955 54.7334 422.955 56.3343C422.955 57.9346 421.818 59.2323 420.421 59.2323ZM442.858 59.2323C441.461 59.2323 440.325 57.9346 440.325 56.3343C440.325 54.7334 441.461 53.4357 442.858 53.4357C444.255 53.4357 445.391 54.7334 445.391 56.3343C445.391 57.9346 444.255 59.2323 442.858 59.2323ZM415.406 53.7874C415.21 54.0161 414.87 54.0444 414.646 53.8504C414.414 53.6564 414.385 53.3141 414.581 53.0847C414.667 52.9826 414.819 52.8126 415.037 52.5976C415.398 52.2415 415.797 51.8854 416.238 51.5525C417.526 50.5827 418.873 49.9942 420.233 49.9942C422.202 49.9942 423.273 50.4647 424.359 51.6582C424.532 51.8463 424.706 52.0519 424.938 52.3341C425.003 52.4166 425.415 52.9334 425.546 53.0926C425.734 53.3257 425.698 53.668 425.466 53.8577C425.234 54.0466 424.894 54.0118 424.706 53.7795C424.576 53.6159 424.156 53.0984 424.091 53.0188C423.874 52.7518 423.714 52.5599 423.562 52.3899C422.679 51.4237 421.898 51.0813 420.233 51.0813C419.155 51.0813 418.011 51.58 416.897 52.421C416.491 52.7221 416.129 53.0456 415.804 53.3691C415.608 53.5609 415.471 53.7078 415.406 53.7874ZM438.58 53.7722C438.392 54.0082 438.052 54.0487 437.821 53.8634C437.582 53.6774 437.538 53.3358 437.726 53.0999C437.806 52.9978 437.951 52.8277 438.153 52.6121C438.486 52.2553 438.863 51.8984 439.275 51.5648C440.477 50.5877 441.736 49.9942 443.017 49.9942C444.863 49.9942 445.883 50.4719 446.896 51.6726C447.056 51.8615 447.215 52.0671 447.425 52.3493C447.49 52.4318 447.873 52.9486 447.996 53.1078C448.177 53.3474 448.127 53.6883 447.888 53.8692C447.649 54.0502 447.309 54.0031 447.128 53.7636C447.005 53.6007 446.621 53.0825 446.563 53.0029C446.361 52.7366 446.209 52.5448 446.064 52.3747C445.253 51.4164 444.544 51.0813 443.017 51.0813C442.033 51.0813 440.983 51.5742 439.956 52.4087C439.586 52.709 439.246 53.0318 438.95 53.3546C438.769 53.5464 438.646 53.6926 438.58 53.7722ZM434.773 63.7608H439.044L434.267 51.4591C434.158 51.1798 434.296 50.8649 434.571 50.7556C434.853 50.6471 435.164 50.7853 435.273 51.0654L440.339 64.1075C440.484 64.4636 440.216 64.8479 439.84 64.8479H434.773C434.469 64.8479 434.231 64.6047 434.231 64.3044C434.231 64.004 434.469 63.7608 434.773 63.7608ZM432.132 71.3045C431.864 71.4464 431.538 71.3465 431.394 71.0824C431.256 70.8175 431.357 70.4882 431.618 70.3463C433.586 69.2918 435.475 69.2918 437.227 70.3622C437.48 70.5185 437.56 70.8529 437.408 71.1091C437.249 71.3653 436.916 71.4457 436.655 71.2886C435.251 70.4266 433.767 70.4266 432.132 71.3045Z" fill="#505050"/>
<path fill-rule="evenodd" clip-rule="evenodd" d="M32.8495 410.416L61.7998 499.899L204.742 480.698V376L63.5303 404.274L61.7998 416.575L52.5386 406.474L32.8495 410.416Z" fill="white"/>
<path d="M52.9388 405.651C52.8107 405.511 52.6182 405.448 52.4321 405.485L32.7431 409.428C32.4246 409.491 32.2328 409.818 32.3327 410.127L61.283 499.61C61.364 499.86 61.6123 500.016 61.8721 499.98L204.814 480.78C205.083 480.744 205.285 480.514 205.285 480.242V375.543C205.285 375.2 204.971 374.943 204.635 375.011L63.4239 403.284C63.1973 403.33 63.0243 403.513 62.9925 403.741L61.4227 414.903L52.9388 405.651ZM52.3453 406.61L61.3995 416.486C61.71 416.824 62.2731 416.648 62.3375 416.194L64.0137 404.274L204.199 376.206V479.767L62.1768 498.844L33.5537 410.372L52.3453 406.61Z" fill="#505050"/>
<path fill-rule="evenodd" clip-rule="evenodd" d="M1.00421 655.199H49.134C68.0921 605.81 85.4978 574.97 101.352 562.683C102.288 561.957 96.7037 553.912 84.5981 538.547C92.4451 544.759 97.8733 548.744 100.883 550.503C102.3 551.331 102.421 539.497 101.245 515L114.203 554.269C119.137 551.789 122.899 550.05 125.49 549.054C161.919 535.046 191.835 570.425 215.236 655.199H704.496" fill="white"/>
<path d="M100.609 550.516C101.125 550.817 101.591 550.537 101.845 549.994C102.01 549.641 102.137 549.106 102.24 548.369C102.437 546.964 102.549 544.778 102.579 541.797C102.633 536.525 102.43 528.752 101.97 518.475L113.687 553.982C113.792 554.297 114.151 554.446 114.447 554.297C119.365 551.825 123.114 550.093 125.685 549.104C161.686 535.261 191.387 570.388 214.713 654.887C214.778 655.125 214.992 655.285 215.236 655.285H704.496C704.793 655.285 705.039 655.046 705.039 654.742C705.039 654.445 704.793 654.199 704.496 654.199H215.65C192.188 569.44 162.096 533.94 125.296 548.091C122.784 549.057 119.194 550.707 114.521 553.045L101.76 514.373C101.562 513.773 100.672 513.938 100.702 514.57C101.29 526.808 101.554 535.882 101.493 541.786C101.463 544.723 101.353 546.871 101.165 548.218C101.087 548.771 100.998 549.18 100.905 549.429C97.8762 547.616 92.5464 543.691 84.9347 537.666C84.4302 537.267 83.773 537.922 84.1718 538.427C90.2181 546.101 94.6352 551.947 97.4195 555.958C98.804 557.953 99.7825 559.491 100.351 560.564C100.625 561.08 100.799 561.481 100.873 561.754C100.888 561.807 100.897 561.852 100.903 561.888C85.015 574.282 67.655 605.041 48.7613 654.199H1.00418C0.704547 654.199 0.461365 654.445 0.461365 654.742C0.461365 655.046 0.704547 655.285 1.00418 655.285H49.134C49.3591 655.285 49.5603 655.147 49.6407 654.937C68.5647 605.635 85.9327 574.861 101.684 562.656C102.574 561.966 101.484 559.91 98.3111 555.339C95.9575 551.949 92.453 547.267 87.7971 541.293C93.7819 545.947 98.0484 549.019 100.609 550.516Z" fill="#505050"/>
<path d="M426.016 0H405.455C396.219 0 388.72 7.44963 388.628 16.6746L376.423 34.288C376.174 34.6484 376.431 35.1413 376.869 35.1413H459.381C459.859 35.1413 460.098 34.5652 459.772 34.2207L442.112 15.9002C441.997 7.0986 434.831 0 426.016 0ZM389.617 17.1559C389.68 17.0647 389.713 16.9569 389.713 16.8462C389.713 8.14227 396.761 1.08708 405.455 1.08708H426.016C434.31 1.08708 441.034 7.81802 441.034 16.1217C441.034 16.2621 441.085 16.3974 441.186 16.4988L458.1 34.0542H377.907L389.617 17.1559Z" fill="#505050"/>
<path fill-rule="evenodd" clip-rule="evenodd" d="M441.352 16.4836L388.938 17.2081L385.319 22.6428H447.2L441.352 16.4836Z" fill="#E16428"/>
<path d="M441.707 15.5782L389.293 16.3027C389.114 16.3056 388.947 16.396 388.848 16.5444L385.229 21.9791C384.989 22.3403 385.247 22.8237 385.681 22.8237H447.562C448.04 22.8237 448.286 22.252 447.953 21.906L442.105 15.7468C442.004 15.6375 441.859 15.576 441.707 15.5782ZM446.296 21.7366H386.696L389.593 17.3854L441.483 16.6682L446.296 21.7366Z" fill="#505050"/>
<path fill-rule="evenodd" clip-rule="evenodd" d="M294.488 624.385L288.336 654.095H312.22H404.861C399.518 642.805 393.246 634.959 386.043 630.544C378.84 626.137 365.692 624.081 346.598 624.385L356.369 573.671L297.745 574.033L297.021 612.067L294.488 624.385Z" fill="white"/>
<path fill-rule="evenodd" clip-rule="evenodd" d="M451.905 620.043V654.457L466.38 654.095H559.021C553.679 642.805 547.404 634.959 540.203 630.544C533.002 626.137 519.851 624.081 500.758 624.385L509.805 574.482L446.477 574.033L451.181 612.067L451.905 620.043Z" fill="white"/>
<path fill-rule="evenodd" clip-rule="evenodd" d="M297.021 612.436C302.562 613.326 306.904 616.829 310.048 622.938C313.192 629.046 314.882 637.254 315.115 647.574L289.783 647.212" fill="#E16428"/>
<path fill-rule="evenodd" clip-rule="evenodd" d="M451.905 612.436C461.791 614.781 468.305 619.008 471.446 625.109C474.587 631.217 476.035 638.708 475.789 647.574L451.905 647.212V612.436Z" fill="#E16428"/>
<path d="M315.022 573.744L319.052 545.953H310.41V544.867H319.209L321.363 530.013H313.667V528.927H355.645V530.013H347.231L344.478 544.867H352.388V545.953H344.277L339.156 573.592L357.027 573.483L349.022 615.034L351.787 607.456C351.903 607.138 352.047 606.827 352.219 606.537C353.789 603.867 357.229 602.969 359.903 604.54C360.353 604.8 360.759 605.133 361.105 605.524C362.92 607.579 362.731 610.706 360.68 612.523L347.815 623.922C350.236 623.314 356.182 621.787 364.917 619.514C365.207 619.442 365.503 619.616 365.579 619.905C365.655 620.195 365.481 620.491 365.191 620.564C358.827 622.221 354.238 623.408 351.21 624.183C367.919 624.255 379.615 626.332 386.327 630.443C393.63 634.923 399.967 642.848 405.351 654.226L405.718 655H287.669L293.956 624.638L296.479 612.371L297.212 573.852L315.022 573.744ZM316.12 573.737L326.618 573.671L330.86 545.953H320.148L316.12 573.737ZM327.717 573.664L338.051 573.599L343.173 545.953H331.959L327.717 573.664ZM347.058 625.283C347.011 625.297 346.964 625.297 346.915 625.297L334.672 625.652C334.372 625.666 334.122 625.427 334.113 625.131C334.105 624.827 334.341 624.581 334.64 624.566L345.574 624.248L332.337 612.523C330.288 610.706 330.097 607.579 331.912 605.524C332.258 605.133 332.664 604.8 333.114 604.54C335.789 602.969 339.23 603.867 340.799 606.537C340.97 606.827 341.115 607.138 341.231 607.456L346.509 621.932L346.678 621.461L355.71 574.576L298.277 574.931L297.572 612.023C308.84 615.374 315.3 626.969 315.65 646.67H400.063C395.789 639.693 391.019 634.59 385.759 631.369C378.723 627.063 365.812 625.022 347.058 625.283ZM347.728 621.751L347.544 622.706L359.961 611.712C361.562 610.294 361.71 607.847 360.292 606.248C360.022 605.944 359.705 605.683 359.354 605.473C357.196 604.207 354.421 604.931 353.155 607.087C353.017 607.326 352.9 607.572 352.806 607.826L347.728 621.751ZM400.715 647.755H290.278L289.002 653.914H403.999C402.94 651.729 401.845 649.673 400.715 647.755ZM290.503 646.67H314.564C314.22 627.512 308.046 616.373 297.434 613.116L295.019 624.863L290.503 646.67ZM340.211 607.826C340.118 607.572 340.001 607.326 339.862 607.087C338.596 604.931 335.821 604.207 333.664 605.473C333.312 605.683 332.996 605.944 332.725 606.248C331.307 607.847 331.456 610.294 333.057 611.712L345.716 622.923L340.211 607.826ZM346.126 530.013H334.398L332.124 544.867H343.374L346.126 530.013ZM333.3 530.013H322.46L320.306 544.867H331.026L333.3 530.013Z" fill="#505050"/>
<path fill-rule="evenodd" clip-rule="evenodd" d="M292.316 187.116H280.374L293.402 166.467" fill="#E16428"/>
<path d="M459.2 573.563L455.191 545.953H448.286V544.867H455.039L452.882 530.013H446.115V528.927H489.902V530.013H480.551L482.049 544.867H490.264V545.953H482.158L484.952 573.708L510.449 573.852L502.191 621.714L507.395 607.456C507.511 607.138 507.656 606.827 507.829 606.537C509.393 603.867 512.838 602.969 515.509 604.54C515.964 604.8 516.37 605.133 516.71 605.524C518.527 607.579 518.338 610.706 516.29 612.523L504.001 623.408C507.062 622.634 512.208 621.302 519.077 619.514C519.366 619.442 519.663 619.616 519.742 619.905C519.815 620.195 519.641 620.491 519.352 620.564C512.99 622.221 508.401 623.408 505.376 624.175C522.276 624.226 534.087 626.303 540.847 630.443C548.15 634.923 554.49 642.848 559.875 654.226L560.237 655H451.369L451.362 654.464L451.007 612.501L445.854 573.483L459.2 573.563ZM460.293 573.57L471.193 573.628L468.747 545.953H456.291L460.293 573.57ZM472.286 573.635L483.859 573.7L481.065 545.953H469.832L472.286 573.635ZM452.013 611.9C467.741 615.07 475.854 626.716 476.324 646.67H554.584C550.314 639.693 545.544 634.59 540.283 631.369C533.27 627.077 520.43 625.036 501.786 625.283C501.714 625.297 501.641 625.297 501.569 625.283C501.439 625.29 501.308 625.29 501.178 625.29C501.149 625.297 501.113 625.297 501.077 625.297L488.831 625.652C488.534 625.666 488.281 625.427 488.274 625.131C488.266 624.827 488.498 624.581 488.802 624.566L499.738 624.248L486.5 612.523C484.445 610.706 484.257 607.579 486.073 605.524C486.421 605.133 486.826 604.8 487.275 604.54C489.953 602.969 493.39 603.867 494.961 606.537C495.128 606.827 495.272 607.138 495.388 607.456L500.932 622.648L509.161 574.931L447.099 574.576L452.013 611.9ZM452.093 613.022L452.382 646.67H475.231C474.775 627.324 467.075 616.163 452.093 613.022ZM555.236 647.755H452.39L452.44 653.914H558.521C557.465 651.729 556.365 649.673 555.236 647.755ZM494.375 607.826C494.281 607.572 494.158 607.326 494.02 607.087C492.754 604.931 489.982 604.207 487.825 605.473C487.47 605.683 487.159 605.944 486.884 606.248C485.465 607.847 485.617 610.294 487.217 611.712L499.875 622.923L494.375 607.826ZM508.416 607.826L502.908 622.923L515.566 611.712C517.173 610.294 517.318 607.847 515.899 606.248C515.632 605.944 515.313 605.683 514.958 605.473C512.802 604.207 510.03 604.931 508.763 607.087C508.626 607.326 508.51 607.572 508.416 607.826ZM479.458 530.013H468.421L469.738 544.867H480.956L479.458 530.013ZM467.328 530.013H453.982L456.131 544.867H468.645L467.328 530.013Z" fill="#505050"/>
<path d="M293.261 165.884C293.327 165.638 293.382 165.407 293.429 165.195L294.022 152.667C295.006 131.899 312.112 115.567 332.881 115.567H373.739V116.654H332.881C312.692 116.654 296.063 132.53 295.106 152.718L294.934 156.361C296.853 148.994 300.553 142.404 306.04 136.744C314.311 128.213 324.554 132.465 336.544 149.122C336.72 149.365 336.665 149.705 336.421 149.881C336.178 150.057 335.839 150.001 335.664 149.758C324.01 133.569 314.471 129.609 306.819 137.501C299.618 144.929 295.575 153.987 294.666 164.341C294.641 164.629 294.589 164.96 294.509 165.337L292.858 200.185L291.774 200.133L292.382 187.298H280.736C280.309 187.298 280.049 186.826 280.277 186.464L293.261 165.884ZM292.434 186.211L293.303 167.853L281.721 186.211H292.434Z" fill="#505050"/>
<path d="M453.468 214.524C453.171 214.513 452.932 214.26 452.947 213.961C452.954 213.66 453.208 213.426 453.511 213.438C457.507 213.591 459.41 211.294 459.323 206.269C459.244 201.222 457.586 198.872 454.315 198.93C454.011 198.935 453.765 198.696 453.758 198.396C453.758 198.096 453.996 197.848 454.293 197.843C458.274 197.774 460.322 200.673 460.409 206.252C460.503 211.854 458.144 214.703 453.468 214.524ZM452.31 252.75C452.013 252.723 451.789 252.459 451.818 252.16C451.847 251.861 452.107 251.64 452.411 251.668C456.392 252.03 458.411 249.834 458.592 244.813C458.773 239.769 457.239 237.335 453.967 237.221C453.671 237.211 453.432 236.959 453.446 236.659C453.454 236.359 453.707 236.124 454.004 236.135C457.984 236.274 459.881 239.276 459.678 244.852C459.475 250.451 456.971 253.173 452.31 252.75ZM428.585 295.048C428.31 294.927 428.18 294.607 428.303 294.332C428.426 294.057 428.745 293.932 429.02 294.052C432.703 295.669 435.164 294.609 436.655 290.749C438.153 286.863 437.365 284.465 434.289 283.283C434.006 283.176 433.869 282.862 433.977 282.581C434.086 282.301 434.397 282.161 434.679 282.269C438.37 283.685 439.369 286.733 437.668 291.14C435.96 295.572 432.841 296.915 428.585 295.048ZM389.499 150.387L390.548 150.667C388.568 158.101 384.436 162.488 378.188 163.739L377.975 162.674C383.79 161.509 387.619 157.443 389.499 150.387Z" fill="#505050"/>
<path d="M328.704 164.796L330.151 170.23C330.228 170.52 330.526 170.692 330.815 170.615C331.105 170.537 331.278 170.24 331.2 169.95L329.753 164.516C329.675 164.226 329.378 164.053 329.088 164.131C328.799 164.208 328.626 164.506 328.704 164.796Z" fill="#505050"/>
<path d="M329.106 165.185L333.811 166.272C334.102 166.34 334.394 166.157 334.461 165.865C334.529 165.572 334.346 165.281 334.055 165.213L329.35 164.126C329.058 164.059 328.767 164.241 328.699 164.534C328.632 164.826 328.814 165.118 329.106 165.185Z" fill="#505050"/>
<path d="M533.378 168.625C529.723 164.207 523.361 163.74 518.114 167.194C516.066 168.54 514.582 170.457 513.88 172.647C512.114 178.167 519.048 192.273 534.688 215.318C534.854 215.566 535.195 215.63 535.441 215.462C535.687 215.293 535.752 214.955 535.585 214.707C520.198 192.037 513.308 178.009 514.915 172.979C515.537 171.03 516.869 169.313 518.707 168.102C523.52 164.935 529.26 165.356 532.546 169.319C532.734 169.55 533.081 169.582 533.306 169.39C533.537 169.199 533.573 168.856 533.378 168.625Z" fill="#505050"/>
<path d="M165.018 448.809C167.05 448.513 168.886 447.895 170.528 446.955C172.139 445.992 173.373 444.748 174.228 443.222C175.057 441.7 175.358 439.972 175.13 438.038C175.095 437.8 174.987 437.614 174.806 437.479C174.621 437.317 174.396 437.256 174.132 437.294L168.789 438.073C168.446 438.123 168.195 438.254 168.038 438.465C167.853 438.681 167.709 438.985 167.605 439.377C167.49 441.55 166.285 442.803 163.989 443.138C162.67 443.33 161.59 443.043 160.751 442.276C159.912 441.509 159.373 440.307 159.134 438.671L157.467 427.232L170.292 425.363C170.555 425.325 170.78 425.198 170.964 424.982C171.118 424.744 171.175 424.493 171.137 424.229L170.566 420.311C170.524 420.021 170.397 419.797 170.185 419.639C169.947 419.485 169.696 419.427 169.432 419.465L150.274 422.258C149.984 422.3 149.76 422.427 149.602 422.638C149.418 422.854 149.347 423.107 149.39 423.397L151.801 439.942C152.128 442.185 152.895 444.027 154.102 445.468C155.309 446.909 156.856 447.91 158.743 448.47C160.631 449.031 162.722 449.143 165.018 448.809ZM138.739 452.639C142.012 452.162 144.418 451.016 145.959 449.202C147.5 447.387 148.144 445.056 147.891 442.21C147.867 441.863 147.794 441.267 147.671 440.423C147.548 439.578 147.448 438.987 147.372 438.647C146.806 435.873 145.499 433.841 143.451 432.549C141.4 431.231 138.791 430.803 135.624 431.264C132.431 431.73 130.04 432.887 128.45 434.735C126.856 436.558 126.184 438.879 126.433 441.699C126.457 442.046 126.53 442.642 126.653 443.486C126.776 444.33 126.876 444.922 126.952 445.261C127.522 448.062 128.804 450.112 130.799 451.411C132.794 452.71 135.441 453.119 138.739 452.639ZM138.036 447.81C136.875 447.979 135.967 447.761 135.313 447.155C134.655 446.524 134.181 445.488 133.89 444.048C133.825 443.788 133.735 443.262 133.62 442.471C133.504 441.679 133.44 441.149 133.428 440.882C133.3 439.445 133.474 438.328 133.951 437.531C134.401 436.738 135.193 436.259 136.328 436.093C138.518 435.774 139.887 437.03 140.434 439.861L140.705 441.438L140.896 443.027C141.055 444.486 140.909 445.612 140.458 446.406C139.978 447.176 139.17 447.644 138.036 447.81ZM111.692 456.581C114.331 456.196 116.247 455.014 117.441 453.034L117.625 454.301C117.664 454.565 117.791 454.789 118.006 454.973C118.218 455.131 118.469 455.189 118.759 455.146L123.232 454.494C123.496 454.456 123.72 454.329 123.904 454.114C124.058 453.876 124.116 453.625 124.077 453.361L120.27 427.237C120.228 426.946 120.101 426.722 119.889 426.565C119.651 426.411 119.4 426.353 119.136 426.391L114.307 427.095C114.017 427.137 113.793 427.264 113.635 427.476C113.477 427.688 113.419 427.939 113.462 428.229L114.696 436.699C112.992 435.358 110.952 434.86 108.577 435.206C106.017 435.579 104.12 436.705 102.884 438.583C101.649 440.46 101.186 442.832 101.496 445.697C101.519 446.044 101.576 446.521 101.664 447.128C101.749 447.708 101.829 448.168 101.905 448.508C102.468 451.444 103.594 453.624 105.284 455.049C106.97 456.447 109.106 456.957 111.692 456.581ZM113.056 450.965C111.816 451.146 110.878 450.905 110.243 450.243C109.581 449.585 109.116 448.615 108.849 447.334C108.719 446.814 108.633 446.409 108.591 446.118C108.548 445.828 108.515 445.415 108.491 444.88C108.382 443.575 108.55 442.513 108.997 441.694C109.417 440.878 110.247 440.38 111.487 440.199C112.648 440.03 113.584 440.257 114.295 440.881C115.006 441.505 115.466 442.354 115.677 443.428L115.93 444.887L116.11 446.397C116.203 447.596 116.029 448.618 115.586 449.464C115.114 450.288 114.27 450.788 113.056 450.965ZM90.8379 459.62C92.9754 459.308 94.7255 458.743 96.0884 457.925C97.4249 457.11 98.3747 456.231 98.9377 455.286C99.5007 454.342 99.7341 453.54 99.638 452.88C99.5995 452.616 99.4764 452.419 99.2686 452.287C99.0306 452.133 98.7928 452.074 98.5553 452.108L94.043 452.766C93.8847 452.789 93.7492 452.876 93.6365 453.027C93.3506 453.285 93.1381 453.491 92.999 453.646C92.48 454.153 92.0248 454.542 91.6333 454.815C91.2116 455.065 90.6841 455.236 90.0508 455.328C89.2856 455.44 88.6443 455.385 88.127 455.164C87.5795 454.921 87.2654 454.522 87.1846 453.968C87.1192 453.519 87.1993 453.144 87.4247 452.841C87.6237 452.543 88.0622 452.223 88.74 451.881C89.414 451.514 90.4556 451.079 91.8646 450.577C93.9894 449.809 95.5725 448.838 96.6138 447.662C97.6249 446.463 98.0054 445.007 97.7555 443.291C97.5978 442.21 97.1047 441.23 96.2764 440.354C95.448 439.478 94.3167 438.834 92.8824 438.423C91.4218 438.016 89.7547 437.949 87.8812 438.223C86.0077 438.496 84.4139 439.024 83.1 439.809C81.786 440.593 80.8343 441.459 80.2449 442.408C79.6253 443.333 79.3655 444.139 79.4654 444.825C79.5001 445.063 79.6232 445.26 79.8348 445.418C80.0201 445.58 80.2314 445.643 80.4689 445.609L84.5854 445.009C84.7965 444.978 84.9848 444.883 85.1503 444.724C85.4664 444.49 85.7411 444.247 85.9742 443.998C86.3728 443.59 86.7565 443.264 87.1254 443.022C87.4943 442.779 87.969 442.616 88.5496 442.531C89.2357 442.431 89.8129 442.509 90.2812 442.764C90.7232 443.023 90.9807 443.403 91.0538 443.904C91.1115 444.3 91.054 444.645 90.8813 444.94C90.6823 445.239 90.2458 445.572 89.5718 445.939C88.8675 446.285 87.8222 446.693 86.4357 447.164C83.9414 447.986 82.1964 449.049 81.2007 450.353C80.1787 451.661 79.7791 453.08 80.0022 454.61C80.2868 456.563 81.3864 458.006 83.3011 458.94C85.2119 459.847 87.7242 460.074 90.8379 459.62Z" fill="#E16428"/>
<path d="M170.528 446.955L170.784 447.384L170.776 447.389L170.528 446.955ZM174.228 443.222L174.667 443.461L174.664 443.467L174.228 443.222ZM175.13 438.038L175.625 437.966L175.627 437.979L175.13 438.038ZM174.806 437.479L174.507 437.88L174.492 437.868L174.477 437.856L174.806 437.479ZM168.038 438.465L168.438 438.764L168.428 438.777L168.418 438.79L168.038 438.465ZM167.605 439.377L167.105 439.351L167.108 439.299L167.121 439.249L167.605 439.377ZM160.751 442.276L161.088 441.907L160.751 442.276ZM157.467 427.232L156.972 427.304L156.9 426.81L157.395 426.737L157.467 427.232ZM170.964 424.982L171.384 425.254L171.365 425.282L171.344 425.307L170.964 424.982ZM170.185 419.639L170.456 419.219L170.47 419.228L170.484 419.238L170.185 419.639ZM149.602 422.638L150.003 422.937L149.993 422.951L149.982 422.963L149.602 422.638ZM154.102 445.468L154.485 445.147L154.102 445.468ZM158.743 448.47L158.886 447.991L158.743 448.47ZM164.946 448.314C166.921 448.026 168.697 447.427 170.28 446.521L170.776 447.389C169.076 448.362 167.178 448.999 165.09 449.304L164.946 448.314ZM170.272 446.526C171.814 445.605 172.982 444.422 173.792 442.978L174.664 443.467C173.763 445.074 172.465 446.38 170.784 447.384L170.272 446.526ZM173.789 442.983C174.563 441.563 174.851 439.941 174.634 438.096L175.627 437.979C175.865 440.003 175.552 441.837 174.667 443.461L173.789 442.983ZM174.635 438.11C174.619 437.995 174.575 437.93 174.507 437.88L175.105 437.078C175.4 437.298 175.572 437.606 175.625 437.966L174.635 438.11ZM174.477 437.856C174.412 437.799 174.338 437.769 174.204 437.789L174.06 436.799C174.455 436.742 174.829 436.836 175.135 437.102L174.477 437.856ZM174.204 437.789L168.861 438.568L168.717 437.578L174.06 436.799L174.204 437.789ZM168.861 438.568C168.606 438.605 168.494 438.689 168.438 438.764L167.637 438.166C167.896 437.818 168.285 437.641 168.717 437.578L168.861 438.568ZM168.418 438.79C168.298 438.93 168.181 439.157 168.088 439.506L167.121 439.249C167.237 438.813 167.408 438.432 167.657 438.14L168.418 438.79ZM168.104 439.404C168.042 440.579 167.68 441.56 166.975 442.293C166.273 443.023 165.282 443.455 164.061 443.633L163.917 442.643C164.992 442.487 165.751 442.124 166.254 441.6C166.754 441.08 167.053 440.348 167.105 439.351L168.104 439.404ZM164.061 443.633C162.622 443.842 161.383 443.531 160.414 442.645L161.088 441.907C161.797 442.555 162.717 442.818 163.917 442.643L164.061 443.633ZM160.414 442.645C159.458 441.772 158.887 440.443 158.639 438.743L159.629 438.599C159.858 440.172 160.365 441.246 161.088 441.907L160.414 442.645ZM158.639 438.743L156.972 427.304L157.962 427.16L159.629 438.599L158.639 438.743ZM157.395 426.737L170.22 424.868L170.364 425.858L157.539 427.727L157.395 426.737ZM170.22 424.868C170.356 424.849 170.473 424.787 170.584 424.657L171.344 425.307C171.086 425.608 170.755 425.801 170.364 425.858L170.22 424.868ZM170.544 424.711C170.637 424.567 170.662 424.438 170.642 424.302L171.632 424.157C171.689 424.549 171.599 424.921 171.384 425.254L170.544 424.711ZM170.642 424.302L170.071 420.383L171.061 420.239L171.632 424.157L170.642 424.302ZM170.071 420.383C170.046 420.208 169.979 420.109 169.886 420.04L170.484 419.238C170.814 419.484 171.002 419.833 171.061 420.239L170.071 420.383ZM169.913 420.059C169.77 419.966 169.64 419.94 169.504 419.96L169.36 418.971C169.752 418.914 170.124 419.004 170.456 419.219L169.913 420.059ZM169.504 419.96L150.347 422.752L150.202 421.763L169.36 418.971L169.504 419.96ZM150.347 422.752C150.172 422.778 150.073 422.844 150.003 422.937L149.202 422.34C149.448 422.009 149.797 421.822 150.202 421.763L150.347 422.752ZM149.982 422.963C149.896 423.065 149.862 423.172 149.884 423.325L148.895 423.469C148.833 423.042 148.941 422.643 149.222 422.314L149.982 422.963ZM149.884 423.325L152.296 439.87L151.306 440.014L148.895 423.469L149.884 423.325ZM152.296 439.87C152.612 442.04 153.349 443.791 154.485 445.147L153.719 445.789C152.441 444.264 151.644 442.33 151.306 440.014L152.296 439.87ZM154.485 445.147C155.626 446.509 157.088 447.457 158.886 447.991L158.601 448.949C156.624 448.363 154.992 447.309 153.719 445.789L154.485 445.147ZM158.886 447.991C160.692 448.527 162.709 448.64 164.946 448.314L165.09 449.304C162.735 449.647 160.569 449.534 158.601 448.949L158.886 447.991ZM145.959 449.202L145.578 448.878L145.959 449.202ZM147.891 442.21L147.393 442.254L147.392 442.244L147.891 442.21ZM147.372 438.647L146.884 438.757L146.882 438.747L147.372 438.647ZM143.451 432.549L143.185 432.972L143.181 432.97L143.451 432.549ZM128.45 434.735L128.829 435.061L128.826 435.065L128.45 434.735ZM126.433 441.699L126.931 441.655L126.932 441.665L126.433 441.699ZM126.952 445.261L127.44 445.152L127.442 445.162L126.952 445.261ZM130.799 451.411L131.072 450.992L130.799 451.411ZM135.313 447.155L134.973 447.523L134.967 447.516L135.313 447.155ZM133.89 444.048L134.375 443.927L134.378 443.938L134.38 443.949L133.89 444.048ZM133.428 440.882L133.926 440.837L133.927 440.848L133.928 440.859L133.428 440.882ZM133.951 437.531L134.386 437.778L134.38 437.788L133.951 437.531ZM140.434 439.861L140.925 439.766L140.927 439.776L140.434 439.861ZM140.705 441.438L141.197 441.354L141.2 441.366L141.201 441.378L140.705 441.438ZM140.896 443.027L141.392 442.967L141.393 442.973L140.896 443.027ZM140.458 446.406L140.893 446.652L140.888 446.661L140.883 446.67L140.458 446.406ZM138.667 452.144C141.866 451.678 144.142 450.569 145.578 448.878L146.34 449.525C144.694 451.463 142.157 452.646 138.812 453.133L138.667 452.144ZM145.578 448.878C147.015 447.185 147.637 444.996 147.393 442.254L148.389 442.166C148.652 445.117 147.985 447.589 146.34 449.525L145.578 448.878ZM147.392 442.244C147.37 441.918 147.299 441.34 147.176 440.495L148.166 440.351C148.289 441.195 148.365 441.808 148.39 442.176L147.392 442.244ZM147.176 440.495C147.053 439.65 146.956 439.076 146.884 438.757L147.86 438.538C147.941 438.898 148.043 439.507 148.166 440.351L147.176 440.495ZM146.882 438.747C146.338 436.082 145.097 434.178 143.185 432.972L143.718 432.126C145.901 433.503 147.274 435.664 147.862 438.547L146.882 438.747ZM143.181 432.97C141.259 431.735 138.782 431.31 135.696 431.759L135.552 430.77C138.8 430.296 141.541 430.727 143.722 432.128L143.181 432.97ZM135.696 431.759C132.584 432.213 130.318 433.33 128.829 435.061L128.071 434.409C129.762 432.443 132.279 431.247 135.552 430.77L135.696 431.759ZM128.826 435.065C127.337 436.767 126.692 438.946 126.931 441.655L125.935 441.743C125.676 438.812 126.375 436.349 128.074 434.406L128.826 435.065ZM126.932 441.665C126.954 441.991 127.025 442.569 127.148 443.414L126.158 443.558C126.035 442.714 125.959 442.101 125.934 441.733L126.932 441.665ZM127.148 443.414C127.271 444.259 127.368 444.833 127.44 445.152L126.464 445.371C126.383 445.011 126.281 444.402 126.158 443.558L127.148 443.414ZM127.442 445.162C127.991 447.859 129.212 449.78 131.072 450.992L130.526 451.83C128.397 450.443 127.053 448.265 126.462 445.361L127.442 445.162ZM131.072 450.992C132.931 452.202 135.441 452.614 138.667 452.144L138.812 453.133C135.441 453.625 132.658 453.218 130.526 451.83L131.072 450.992ZM138.108 448.304C136.848 448.488 135.771 448.261 134.973 447.522L135.652 446.789C136.163 447.261 136.901 447.47 137.964 447.315L138.108 448.304ZM134.967 447.516C134.203 446.783 133.699 445.631 133.4 444.147L134.38 443.949C134.662 445.345 135.107 446.265 135.659 446.795L134.967 447.516ZM133.405 444.169C133.333 443.881 133.24 443.33 133.125 442.543L134.114 442.399C134.23 443.194 134.317 443.695 134.375 443.927L133.405 444.169ZM133.125 442.543C133.01 441.755 132.942 441.201 132.929 440.904L133.928 440.859C133.939 441.098 133.998 441.603 134.114 442.399L133.125 442.543ZM132.93 440.926C132.797 439.439 132.968 438.2 133.522 437.275L134.38 437.788C133.98 438.457 133.802 439.452 133.926 440.837L132.93 440.926ZM133.516 437.284C134.062 436.323 135.012 435.78 136.256 435.599L136.4 436.588C135.375 436.738 134.74 437.153 134.385 437.778L133.516 437.284ZM136.256 435.599C137.468 435.422 138.519 435.678 139.335 436.427C140.132 437.158 140.642 438.3 140.925 439.766L139.943 439.956C139.68 438.591 139.232 437.69 138.659 437.164C138.107 436.658 137.378 436.446 136.4 436.588L136.256 435.599ZM140.927 439.776L141.197 441.354L140.212 441.523L139.942 439.945L140.927 439.776ZM141.201 441.378L141.392 442.967L140.399 443.087L140.208 441.498L141.201 441.378ZM141.393 442.973C141.557 444.478 141.418 445.727 140.893 446.652L140.024 446.159C140.399 445.497 140.552 444.494 140.399 443.081L141.393 442.973ZM140.883 446.67C140.305 447.597 139.347 448.124 138.108 448.304L137.964 447.315C138.994 447.165 139.651 446.755 140.034 446.141L140.883 446.67ZM117.441 453.034L117.013 452.776L117.734 451.58L117.935 452.962L117.441 453.034ZM118.006 454.973L117.707 455.374L117.694 455.364L117.681 455.353L118.006 454.973ZM123.904 454.114L124.324 454.385L124.306 454.413L124.284 454.438L123.904 454.114ZM119.889 426.565L120.16 426.145L120.174 426.154L120.188 426.164L119.889 426.565ZM113.635 427.476L114.036 427.775L114.036 427.775L113.635 427.476ZM114.696 436.699L115.191 436.627L115.372 437.867L114.387 437.092L114.696 436.699ZM102.884 438.583L103.302 438.857L102.884 438.583ZM101.496 445.697L101.993 445.643L101.994 445.653L101.995 445.663L101.496 445.697ZM101.905 448.508L102.393 448.398L102.395 448.406L102.397 448.413L101.905 448.508ZM105.284 455.049L104.965 455.434L104.962 455.431L105.284 455.049ZM110.243 450.243L110.596 449.889L110.604 449.897L110.243 450.243ZM108.849 447.334L109.334 447.213L109.336 447.222L109.338 447.232L108.849 447.334ZM108.491 444.88L108.989 444.838L108.99 444.848L108.991 444.857L108.491 444.88ZM108.997 441.694L109.442 441.923L109.436 441.933L108.997 441.694ZM114.295 440.881L114.625 440.505L114.295 440.881ZM115.677 443.428L116.168 443.332L116.17 443.343L115.677 443.428ZM115.93 444.887L116.423 444.802L116.425 444.815L116.426 444.828L115.93 444.887ZM116.11 446.397L116.606 446.338L116.607 446.348L116.608 446.358L116.11 446.397ZM115.586 449.464L116.03 449.696L116.025 449.705L116.02 449.713L115.586 449.464ZM111.62 456.086C114.136 455.719 115.909 454.607 117.013 452.776L117.869 453.293C116.586 455.421 114.526 456.673 111.764 457.075L111.62 456.086ZM117.935 452.962L118.12 454.229L117.131 454.373L116.946 453.107L117.935 452.962ZM118.12 454.229C118.14 454.365 118.201 454.482 118.331 454.593L117.681 455.353C117.38 455.096 117.188 454.765 117.131 454.373L118.12 454.229ZM118.305 454.572C118.398 454.642 118.512 454.677 118.687 454.652L118.831 455.641C118.426 455.7 118.038 455.62 117.707 455.374L118.305 454.572ZM118.687 454.652L123.16 454L123.304 454.989L118.831 455.641L118.687 454.652ZM123.16 454C123.296 453.98 123.413 453.918 123.524 453.789L124.284 454.438C124.026 454.74 123.696 454.932 123.304 454.989L123.16 454ZM123.484 453.842C123.577 453.699 123.602 453.569 123.582 453.433L124.572 453.289C124.629 453.68 124.539 454.052 124.324 454.385L123.484 453.842ZM123.582 453.433L119.775 427.309L120.765 427.165L124.572 453.289L123.582 453.433ZM119.775 427.309C119.75 427.134 119.683 427.035 119.59 426.965L120.188 426.164C120.518 426.41 120.706 426.759 120.765 427.165L119.775 427.309ZM119.617 426.984C119.474 426.892 119.344 426.866 119.208 426.886L119.064 425.897C119.456 425.84 119.828 425.93 120.16 426.145L119.617 426.984ZM119.208 426.886L114.379 427.59L114.235 426.6L119.064 425.897L119.208 426.886ZM114.379 427.59C114.204 427.615 114.105 427.682 114.036 427.775L113.234 427.177C113.48 426.847 113.829 426.659 114.235 426.6L114.379 427.59ZM114.036 427.775C113.966 427.868 113.931 427.982 113.957 428.157L112.967 428.301C112.908 427.896 112.988 427.507 113.234 427.177L114.036 427.775ZM113.957 428.157L115.191 436.627L114.201 436.772L112.967 428.301L113.957 428.157ZM114.387 437.092C112.802 435.845 110.904 435.372 108.649 435.701L108.505 434.712C110.999 434.348 113.181 434.871 115.005 436.307L114.387 437.092ZM108.649 435.701C106.207 436.057 104.447 437.117 103.302 438.857L102.467 438.308C103.793 436.292 105.827 435.102 108.505 434.712L108.649 435.701ZM103.302 438.857C102.147 440.614 101.692 442.86 101.993 445.643L100.999 445.751C100.68 442.803 101.151 440.307 102.467 438.308L103.302 438.857ZM101.995 445.663C102.017 445.991 102.071 446.454 102.159 447.056L101.169 447.2C101.08 446.588 101.022 446.097 100.997 445.731L101.995 445.663ZM102.159 447.056C102.243 447.631 102.321 448.077 102.393 448.398L101.418 448.617C101.337 448.26 101.255 447.786 101.169 447.2L102.159 447.056ZM102.397 448.413C102.945 451.277 104.031 453.338 105.606 454.666L104.962 455.431C103.158 453.91 101.991 451.611 101.414 448.602L102.397 448.413ZM105.603 454.664C107.159 455.954 109.144 456.447 111.62 456.086L111.764 457.075C109.068 457.468 106.781 456.939 104.965 455.434L105.603 454.664ZM113.129 451.46C111.792 451.655 110.668 451.408 109.882 450.59L110.604 449.897C111.089 450.403 111.84 450.637 112.984 450.47L113.129 451.46ZM109.89 450.598C109.137 449.848 108.639 448.776 108.359 447.436L109.338 447.232C109.594 448.455 110.026 449.322 110.595 449.889L109.89 450.598ZM108.364 447.455C108.233 446.93 108.142 446.505 108.096 446.191L109.086 446.046C109.124 446.312 109.206 446.698 109.334 447.213L108.364 447.455ZM108.096 446.191C108.05 445.876 108.016 445.443 107.992 444.902L108.991 444.857C109.015 445.387 109.047 445.781 109.086 446.046L108.096 446.191ZM107.993 444.922C107.879 443.557 108.049 442.388 108.558 441.454L109.436 441.933C109.052 442.638 108.885 443.593 108.989 444.838L107.993 444.922ZM108.552 441.465C109.072 440.457 110.079 439.899 111.415 439.704L111.559 440.694C110.416 440.86 109.762 441.299 109.441 441.922L108.552 441.465ZM111.415 439.704C112.683 439.519 113.778 439.762 114.625 440.505L113.965 441.257C113.39 440.752 112.613 440.54 111.559 440.694L111.415 439.704ZM114.625 440.505C115.431 441.213 115.939 442.167 116.168 443.332L115.186 443.524C114.994 442.541 114.58 441.797 113.965 441.257L114.625 440.505ZM116.17 443.343L116.423 444.802L115.437 444.973L115.184 443.514L116.17 443.343ZM116.426 444.828L116.606 446.338L115.613 446.456L115.433 444.946L116.426 444.828ZM116.608 446.358C116.707 447.626 116.526 448.748 116.03 449.696L115.143 449.233C115.532 448.489 115.7 447.565 115.611 446.436L116.608 446.358ZM116.02 449.713C115.449 450.707 114.446 451.268 113.129 451.46L112.984 450.47C114.095 450.308 114.778 449.869 115.153 449.216L116.02 449.713ZM96.0884 457.925L96.3486 458.352L96.3458 458.354L96.0884 457.925ZM98.9377 455.286L98.5082 455.03L98.9377 455.286ZM99.2686 452.287L99.0014 452.71L98.9971 452.707L99.2686 452.287ZM93.6365 453.027L94.0373 453.326L94.0077 453.366L93.9709 453.399L93.6365 453.027ZM92.999 453.646L93.3711 453.98L93.3601 453.992L93.3483 454.003L92.999 453.646ZM91.6333 454.815L91.9191 455.225L91.9041 455.236L91.8884 455.245L91.6333 454.815ZM88.127 455.164L87.9305 455.624L87.9238 455.621L88.127 455.164ZM87.4247 452.841L87.8407 453.119L87.8334 453.13L87.8255 453.14L87.4247 452.841ZM88.74 451.881L88.9795 452.32L88.9722 452.324L88.9649 452.328L88.74 451.881ZM91.8646 450.577L92.0345 451.047L92.0323 451.048L91.8646 450.577ZM96.6138 447.662L96.996 447.984L96.9881 447.993L96.6138 447.662ZM96.2764 440.354L95.913 440.698L96.2764 440.354ZM92.8824 438.423L93.0166 437.942L93.0201 437.943L92.8824 438.423ZM83.1 439.809L83.3562 440.238L83.3562 440.238L83.1 439.809ZM80.2449 442.408L80.6696 442.672L80.6651 442.679L80.6604 442.686L80.2449 442.408ZM79.8348 445.418L80.1337 445.017L80.1491 445.029L80.1636 445.041L79.8348 445.418ZM85.1503 444.724L84.8041 444.364L84.8269 444.342L84.8523 444.323L85.1503 444.724ZM85.9742 443.998L85.6087 443.657L85.6163 443.649L85.9742 443.998ZM87.1254 443.022L86.8508 442.604L87.1254 443.022ZM90.2812 442.764L90.5204 442.325L90.5273 442.329L90.534 442.332L90.2812 442.764ZM90.8813 444.94L91.3127 445.193L91.3054 445.205L91.2973 445.217L90.8813 444.94ZM89.5718 445.939L89.8112 446.378L89.8016 446.384L89.7918 446.388L89.5718 445.939ZM86.4357 447.164L86.5967 447.638L86.5921 447.639L86.4357 447.164ZM81.2007 450.353L81.5982 450.656L81.5947 450.661L81.2007 450.353ZM83.3011 458.94L83.0866 459.391L83.0819 459.389L83.3011 458.94ZM90.7658 459.125C92.8598 458.82 94.5413 458.271 95.831 457.496L96.3458 458.354C94.9097 459.216 93.0909 459.797 90.9101 460.115L90.7658 459.125ZM95.8282 457.498C97.1228 456.709 98.0007 455.882 98.5082 455.03L99.3671 455.542C98.7486 456.58 97.727 457.512 96.3486 458.352L95.8282 457.498ZM98.5082 455.03C99.0477 454.125 99.215 453.445 99.1432 452.952L100.133 452.808C100.253 453.635 99.9537 454.558 99.3671 455.542L98.5082 455.03ZM99.1432 452.952C99.1238 452.819 99.0744 452.756 99.0014 452.71L99.5359 451.865C99.8784 452.081 100.075 452.414 100.133 452.808L99.1432 452.952ZM98.9971 452.707C98.8413 452.606 98.724 452.589 98.6275 452.603L98.4832 451.614C98.8616 451.558 99.2199 451.66 99.5402 451.867L98.9971 452.707ZM98.6275 452.603L94.1151 453.261L93.9709 452.271L98.4832 451.614L98.6275 452.603ZM94.1151 453.261C94.1112 453.261 94.086 453.261 94.0373 453.326L93.2356 452.728C93.4124 452.491 93.6581 452.317 93.9709 452.271L94.1151 453.261ZM93.9709 453.399C93.6892 453.652 93.4923 453.845 93.3711 453.98L92.6268 453.312C92.7838 453.137 93.012 452.917 93.302 452.656L93.9709 453.399ZM93.3483 454.003C92.8186 454.521 92.3415 454.931 91.9191 455.225L91.3476 454.405C91.708 454.154 92.1413 453.784 92.6496 453.288L93.3483 454.003ZM91.8884 455.245C91.3962 455.537 90.8021 455.724 90.1229 455.823L89.9787 454.834C90.5662 454.748 91.027 454.593 91.3782 454.385L91.8884 455.245ZM90.1229 455.823C89.2995 455.943 88.5585 455.892 87.9306 455.624L88.3235 454.704C88.7302 454.878 89.2717 454.937 89.9787 454.834L90.1229 455.823ZM87.9238 455.621C87.2327 455.314 86.7974 454.777 86.6898 454.04L87.6794 453.895C87.7334 454.266 87.9263 454.528 88.3303 454.707L87.9238 455.621ZM86.6898 454.04C86.6095 453.488 86.7035 452.972 87.0238 452.542L87.8255 453.14C87.695 453.315 87.629 453.55 87.6794 453.895L86.6898 454.04ZM87.0087 452.564C87.2853 452.149 87.8283 451.781 88.5152 451.435L88.9649 452.328C88.296 452.665 87.9621 452.936 87.8407 453.119L87.0087 452.564ZM88.5006 451.443C89.2101 451.055 90.2816 450.61 91.6969 450.106L92.0323 451.048C90.6295 451.548 89.618 451.972 88.9795 452.32L88.5006 451.443ZM91.6947 450.107C93.7731 449.356 95.2726 448.422 96.2395 447.33L96.9881 447.993C95.8723 449.253 94.2057 450.263 92.0345 451.047L91.6947 450.107ZM96.2316 447.339C97.1401 446.263 97.4925 444.954 97.2607 443.364L98.2502 443.219C98.5184 445.059 98.1096 446.664 96.9959 447.984L96.2316 447.339ZM97.2607 443.364C97.1194 442.394 96.6783 441.507 95.913 440.698L96.6397 440.011C97.5312 440.954 98.0762 442.025 98.2502 443.219L97.2607 443.364ZM95.913 440.698C95.1593 439.9 94.1131 439.296 92.7448 438.904L93.0201 437.943C94.5202 438.372 95.7367 439.055 96.6397 440.011L95.913 440.698ZM92.7483 438.905C91.3692 438.521 89.7745 438.452 87.9533 438.717L87.8091 437.728C89.7349 437.447 91.4744 437.512 93.0166 437.942L92.7483 438.905ZM87.9533 438.717C86.1299 438.983 84.602 439.494 83.3562 440.238L82.8437 439.379C84.2258 438.554 85.8854 438.008 87.8091 437.728L87.9533 438.717ZM83.3562 440.238C82.0867 440.996 81.2042 441.811 80.6696 442.672L79.8203 442.144C80.4645 441.107 81.4853 440.19 82.8437 439.379L83.3562 440.238ZM80.6604 442.686C80.0701 443.568 79.8862 444.245 79.9602 444.753L78.9707 444.897C78.8447 444.033 79.1804 443.099 79.8294 442.129L80.6604 442.686ZM79.9602 444.753C79.9737 444.846 80.0167 444.93 80.1337 445.017L79.5359 445.819C79.2297 445.591 79.0264 445.28 78.9707 444.897L79.9602 444.753ZM80.1636 445.041C80.2419 445.11 80.3078 445.127 80.3968 445.114L80.541 446.103C80.1551 446.16 79.7982 446.05 79.5061 445.795L80.1636 445.041ZM80.3968 445.114L84.5133 444.514L84.6575 445.504L80.541 446.103L80.3968 445.114ZM84.5133 444.514C84.6134 444.499 84.7078 444.456 84.8041 444.364L85.4966 445.085C85.2619 445.31 84.9797 445.457 84.6575 445.504L84.5133 444.514ZM84.8523 444.323C85.1478 444.103 85.3991 443.881 85.6088 443.657L86.3396 444.339C86.083 444.614 85.7851 444.876 85.4484 445.126L84.8523 444.323ZM85.6163 443.649C86.0332 443.222 86.4445 442.871 86.8508 442.604L87.4 443.44C87.0685 443.657 86.7123 443.957 86.332 444.347L85.6163 443.649ZM86.8508 442.604C87.2974 442.31 87.8473 442.128 88.4775 442.036L88.6217 443.026C88.0908 443.103 87.6912 443.248 87.4 443.44L86.8508 442.604ZM88.4775 442.036C89.2384 441.926 89.932 442.004 90.5204 442.325L90.042 443.203C89.6938 443.013 89.2329 442.937 88.6217 443.026L88.4775 442.036ZM90.534 442.332C91.1053 442.667 91.4533 443.179 91.5486 443.832L90.559 443.976C90.5081 443.627 90.3411 443.378 90.0285 443.195L90.534 442.332ZM91.5486 443.832C91.6197 444.32 91.5523 444.784 91.3127 445.193L90.4499 444.687C90.5557 444.507 90.6033 444.28 90.559 443.976L91.5486 443.832ZM91.2973 445.217C91.0256 445.625 90.4928 446.006 89.8112 446.378L89.3323 445.5C89.9987 445.137 90.339 444.852 90.4653 444.663L91.2973 445.217ZM89.7918 446.388C89.0586 446.748 87.9892 447.164 86.5967 447.638L86.2747 446.691C87.6551 446.222 88.6765 445.821 89.3517 445.49L89.7918 446.388ZM86.5921 447.639C84.1409 448.447 82.5059 449.467 81.5981 450.656L80.8034 450.049C81.887 448.63 83.7419 447.525 86.2792 446.69L86.5921 447.639ZM81.5947 450.661C80.6498 451.87 80.2952 453.153 80.497 454.538L79.5074 454.682C79.2631 453.006 79.7075 451.451 80.8068 450.045L81.5947 450.661ZM80.497 454.538C80.7556 456.312 81.7402 457.622 83.5202 458.49L83.0819 459.389C81.0326 458.39 79.818 456.813 79.5074 454.682L80.497 454.538ZM83.5155 458.488C85.3035 459.337 87.7049 459.571 90.7658 459.125L90.9101 460.115C87.7434 460.576 85.1202 460.357 83.0866 459.391L83.5155 458.488Z" fill="#505050"/>
</svg>
